REM MD5 df8e04a855682b2a74e8c45f35ddd37a
FILE "Hugo - Frog Fighter (France).bin" BINARY
  TRACK 01 MODE2/2352
    INDEX 01 00:00:00
  TRACK 02 AUDIO
    INDEX 00 07:18:59
    INDEX 01 07:20:59
  TRACK 03 AUDIO
    INDEX 00 10:15:56
    INDEX 01 10:17:56
  TRACK 04 AUDIO
    INDEX 00 11:19:16
    INDEX 01 11:21:16
  TRACK 05 AUDIO
    INDEX 00 13:52:74
    INDEX 01 13:54:74
  TRACK 06 AUDIO
    INDEX 00 14:57:19
    INDEX 01 14:59:19
REM LEADOUT 18:26:29
